<svg height="512pt" viewBox="0 -34 512.00004 512" width="512pt" xmlns="http://www.w3.org/2000/svg"><path d="m256 95.421875c-23.90625 0-43.351562 19.445313-43.351562 43.351563v39.191406c0 23.902344 19.449218 43.351562 43.351562 43.351562s43.351562-19.449218 43.351562-43.351562v-39.191406c0-23.90625-19.449218-43.351563-43.351562-43.351563zm12.632812 82.542969c0 6.964844-5.667968 12.628906-12.632812 12.628906s-12.628906-5.664062-12.628906-12.628906v-39.191406c0-6.964844 5.664062-12.632813 12.628906-12.632813s12.632812 5.667969 12.632812 12.632813zm0 0"/><path d="m177.152344 95.421875c-8.480469 0-15.359375 6.878906-15.359375 15.359375v31.371094h-25.261719v-31.371094c0-8.480469-6.878906-15.359375-15.359375-15.359375-8.484375 0-15.359375 6.878906-15.359375 15.359375v46.730469c0 8.484375 6.875 15.363281 15.359375 15.363281h40.621094v33.082031c0 8.480469 6.878906 15.359375 15.359375 15.359375 8.484375 0 15.359375-6.878906 15.359375-15.359375v-95.175781c0-8.484375-6.875-15.359375-15.359375-15.359375zm0 0"/><path d="m390.828125 95.421875c-8.484375 0-15.359375 6.878906-15.359375 15.359375v31.371094h-25.261719v-31.371094c0-8.480469-6.878906-15.359375-15.363281-15.359375-8.480469 0-15.359375 6.878906-15.359375 15.359375v46.730469c0 8.484375 6.878906 15.363281 15.359375 15.363281h40.625v33.082031c0 8.480469 6.875 15.359375 15.359375 15.359375 8.480469 0 15.359375-6.878906 15.359375-15.359375v-95.175781c0-8.484375-6.875-15.359375-15.359375-15.359375zm0 0"/><path d="m496.640625 0h-481.28125c-8.480469 0-15.359375 6.878906-15.359375 15.359375v344.96875c0 8.480469 6.878906 15.359375 15.359375 15.359375h160.769531v36.863281h-46.082031c-8.484375 0-15.359375 6.875-15.359375 15.359375s6.875 15.359375 15.359375 15.359375h251.90625c8.484375 0 15.359375-6.875 15.359375-15.359375s-6.875-15.359375-15.359375-15.359375h-46.082031v-36.863281h160.769531c8.480469 0 15.359375-6.878906 15.359375-15.359375v-344.96875c0-8.480469-6.878906-15.359375-15.359375-15.359375zm-465.921875 30.71875h450.5625v246.664062h-450.5625zm274.433594 381.832031h-98.304688v-36.863281h98.304688zm176.128906-67.582031h-450.5625v-36.863281h450.5625zm0 0"/></svg>